<?xml version="1.0" encoding="utf-8"?>
<!-- Generator: Adobe Illustrator 26.0.1, SVG Export Plug-In . SVG Version: 6.00 Build 0)  -->
<svg version="1.1" id="Layer_1" xmlns="http://www.w3.org/2000/svg" xmlns:xlink="http://www.w3.org/1999/xlink" x="0px" y="0px"
	 viewBox="0 0 1076.9 705.4" style="enable-background:new 0 0 1076.9 705.4;" xml:space="preserve">
<style type="text/css">
	.st0{fill:none;stroke:#FFFFFF;stroke-width:6;stroke-miterlimit:10;}
	.st1{fill:#FFFFFF;stroke:#FFFFFF;stroke-width:3;stroke-miterlimit:10;}
	.st2{fill:none;stroke:#FFFFFF;stroke-width:3;stroke-miterlimit:10;}
	.st3{fill:#FFFFFF;stroke:#FFFFFF;stroke-miterlimit:10;}
	.st4{fill:#FFFFFF;stroke:#FFFFFF;stroke-width:2.5539;stroke-miterlimit:10;}
</style>
<path id="XMLID_363_" class="st0" d="M224,333.5C143.9,305.5,68.7,267.1,0,220"/>
<path id="XMLID_362_" class="st0" d="M286.1,191.7c-41-53-65.7-119.3-66.5-191.4"/>
<g id="XMLID_341_">
	
		<image style="overflow:visible;opacity:0.5;enable-background:new    ;" width="54" height="54" xlink:href="407A629E.png"  transform="matrix(0.4533 0 0 0.4533 290.27 166.4)">
	</image>
	<g>
		<path class="st0" d="M301.3,173.5c-1.3,1.4-2.6,2.9-3.9,4.4"/>
	</g>
</g>
<path id="XMLID_340_" class="st0" d="M309.2,165c0.1-0.1,0.2-0.2,0.3-0.3l0.1-0.1"/>
<path id="XMLID_339_" class="st0" d="M312.4,161.7c-0.3,0.3-0.6,0.6-1,1"/>
<g id="XMLID_338_">
	
		<image style="overflow:visible;opacity:0.5;enable-background:new    ;" width="56" height="52" xlink:href="407A62A2.png"  transform="matrix(0.4543 0 0 0.4543 322.43 134.6686)">
	</image>
	<g>
		<path class="st0" d="M329.7,145.6c0.5-0.4,0.9-0.8,1.3-1.2c1.1-0.9,2.2-1.9,3.3-2.8"/>
	</g>
</g>
<g id="XMLID_337_">
	
		<image style="overflow:visible;opacity:0.5;enable-background:new    ;" width="54" height="50" xlink:href="407A62A5.png"  transform="matrix(0.4608 0 0 0.4608 615.7484 71.12)">
	</image>
	<g>
		<path class="st0" d="M627.9,80.5c-1.8-0.5-3.7-1.1-5.5-1.6"/>
	</g>
</g>
<path id="XMLID_336_" class="st0" d="M857.2,0.3c-0.8,72.1-25.4,138.3-66.5,191.4"/>
<path id="XMLID_335_" class="st0" d="M852.9,333.5c80.1-28,155.3-66.3,224-113.5"/>
<path id="XMLID_304_" class="st0" d="M395.9,101.3c-0.1,0.1-0.2,0.1-0.3,0.2c0.2-0.1,0.3-0.2,0.5-0.2
	C396,101.2,396,101.2,395.9,101.3z"/>
<path id="XMLID_303_" class="st0" d="M428.6,87.2c-0.5,0.2-1.1,0.4-1.6,0.6c-0.6,0.2-1.2,0.5-1.8,0.7c1.2-0.4,2.4-0.9,3.6-1.3
	C428.8,87.1,428.7,87.1,428.6,87.2z"/>
<path id="XMLID_300_" class="st0" d="M526.8,67.9c0,0-0.1,0-0.1,0c0.2,0,0.4,0,0.6,0H526.8z"/>
<path id="XMLID_277_" class="st0" d="M309.6,164.6l-0.4,0.4C309.3,164.9,309.4,164.8,309.6,164.6L309.6,164.6z"/>
<path id="XMLID_276_" class="st0" d="M334.3,141.6c-1.3,1.1-2.6,2.2-3.9,3.3c0.2-0.2,0.4-0.4,0.6-0.5
	C332.1,143.5,333.2,142.6,334.3,141.6z"/>
<path id="XMLID_275_" class="st0" d="M396.4,101.1c-1.3,0.6-2.6,1.3-3.9,2c1-0.6,2.1-1.1,3.1-1.6
	C395.9,101.3,396.1,101.2,396.4,101.1z"/>
<path id="XMLID_274_" class="st0" d="M428.8,87.1c-1.2,0.4-2.4,0.9-3.6,1.3c1.1-0.4,2.3-0.8,3.4-1.3
	C428.7,87.1,428.8,87.1,428.8,87.1z"/>
<path id="XMLID_273_" class="st0" d="M529.4,67.9c-1.1,0-2.1,0.1-3.2,0.1c0.1,0,0.2,0,0.3,0C527.4,67.9,528.4,67.9,529.4,67.9z"/>
<path id="XMLID_00000141451610219125664470000007028018848508134308_" class="st0" d="M351,519.4c4.5,6.3,9.2,12.4,14.3,18.2
	c0,0,0.1,0.1,0.1,0.2c6.8,7.8,14.1,15.1,21.8,21.8h0c0,0.1,0.1,0.1,0.1,0.2c0.7,0.6,1.4,1.3,2.1,1.8c0.7,0.6,1.3,1.2,2,1.7
	c0.9,0.8,1.8,1.5,2.7,2.3c0.8,0.7,1.6,1.3,2.4,1.9l0,0c8.9,7,18.2,13.3,28,18.8c10.1,5.8,20.8,10.8,31.9,15
	c11.7,4.5,23.9,8,36.4,10.5c4.8,1,9.7,1.8,14.6,2.5"/>
<path id="XMLID_00000146473350639899614930000003360505009021913489_" class="st0" d="M570.7,614.1c5.7-0.8,11.3-1.8,16.9-3h0
	c34.7-7.5,66.5-22.9,93.4-44.2c2.2-1.8,4.4-3.5,6.6-5.4c9.3-7.9,17.9-16.5,25.8-25.8c24.1-28.2,41.4-62.3,49.6-99.9v0
	c3.2-14.8,5-30.1,5.2-45.8c0,0,0,0,0,0c1.1,0,2.1-0.1,3.2-0.2c1-0.1,2.1-0.3,3.1-0.5c0.5-0.1,1-0.2,1.5-0.3c1.8-0.5,3.6-1.1,5.3-1.9
	c0.6-0.3,1.1-0.5,1.7-0.9c2.6-1.4,5-3.2,7.1-5.3c2.1-2.1,3.9-4.5,5.3-7.1c1-1.7,1.7-3.6,2.3-5.5c0.9-2.9,1.4-6,1.4-9.2
	c0-0.6,0-1.3-0.1-1.9c0-0.4,0-0.7-0.1-1.1V356c0-0.3,0-0.5-0.1-0.8c0-0.2-0.1-0.4-0.1-0.5c0-0.2-0.1-0.4-0.1-0.6
	c0-0.3-0.1-0.6-0.2-0.9v0c0-0.2-0.1-0.4-0.1-0.5c0,0,0-0.1,0-0.1c0,0,0,0,0,0c0-0.1,0-0.2-0.1-0.3c-0.1-0.4-0.2-0.9-0.3-1.3
	c0-0.1,0-0.1,0-0.2c0,0,0,0,0,0h0c0,0,0.1,0,0.2-0.1c0.1,0,0.3-0.1,0.5-0.1c0.3-0.1,0.6-0.2,1.1-0.3c0.3-0.1,0.6-0.2,1-0.3
	c5.6-1.7,17.7-5.2,20.8-6.2c10.5-3.3,20.9-6.7,31.2-10.3c2.5,14.9,4,30.2,4.3,45.8c0.1,2.4,0.1,4.9,0.1,7.3c0,1.7,0,3.4,0,5.1
	c-2.7,172-141.6,310.9-313.6,313.6c-1.7,0-3.5,0-5.2,0c-1.8,0-3.6,0-5.5,0C361.2,702.4,222.5,563.8,219.7,392c0-1.8,0-3.6,0-5.5
	c0-2.5,0-5.1,0.1-7.6c0.4-15.5,1.8-30.7,4.3-45.5c10.3,3.6,20.6,7,31,10.2c8.4,2.6,16.9,5.1,25.4,7.5c-0.5,1.7-0.8,3.4-0.9,5.1
	c-0.1,0.9-0.1,1.8-0.1,2.7c0,6,1.7,11.6,4.7,16.4c0.7,1.2,1.5,2.3,2.5,3.4c0.5,0.5,0.9,1,1.4,1.5c0.3,0.3,0.6,0.6,0.9,0.9
	c0.3,0.3,0.6,0.6,1,0.9c0.5,0.4,1,0.9,1.5,1.3c1.5,1.2,3.2,2.3,5,3.2c3.7,1.9,8,3.1,12.4,3.3c0.1,9.8,0.9,19.5,2.2,28.9
	c1.8,13.1,4.8,25.9,8.7,38.2c3.7,11.5,8.3,22.6,13.7,33.2c5.2,10.2,11.1,20,17.6,29.2"/>
<path id="XMLID_88_" class="st0" d="M350.4,254.3c-2.5,3.5-4.9,7.1-7.1,10.8c-8.4,13.4-15.4,27.8-20.9,42.9c-1,2.7-2,5.5-2.9,8.3
	c-0.3,0.8-0.5,1.5-0.7,2.3c-0.4,1.3-0.8,2.5-1.1,3.8c-0.6,2-1.1,4.1-1.7,6.2v0c-1.9-0.4-3.7-0.5-5.7-0.5c-0.9,0-1.8,0-2.7,0.1
	c-0.8,0.1-1.6,0.2-2.5,0.3c-0.8,0.1-1.6,0.3-2.4,0.5c-0.4,0.1-0.8,0.2-1.2,0.3c-1.1,0.3-2.3,0.7-3.4,1.2c-3.6,1.5-6.9,3.8-9.7,6.5
	c-3.9,3.8-6.8,8.7-8.1,14.1v0c-8.5-2.4-17-4.9-25.4-7.5c-10.4-3.2-20.7-6.6-31-10.2c8.8-52.8,30.6-101.2,62-141.8
	c17.5,22.6,38,42.8,60.9,60.1C348.1,252.6,349.3,253.5,350.4,254.3z"/>
<path id="XMLID_252_" class="st0" d="M790.8,191.7c-17.5,22.7-38.1,42.9-61,60.1c-1.1,0.9-2.2,1.7-3.3,2.5c-2.3-3.2-4.6-6.4-7.1-9.5
	c-6.8-8.7-14.3-16.9-22.3-24.6c-8-7.7-16.6-14.8-25.7-21.2c-9.3-6.6-19-12.5-29.3-17.6c-10.6-5.4-21.8-10-33.2-13.7
	c-12.3-4-25-6.9-38.2-8.8c-10.5-1.5-21.3-2.3-32.3-2.3c-4.3,0-8.5,0.1-12.8,0.4c-19.9,1.1-39.2,4.7-57.5,10.6
	c-20.6,6.6-40,16-57.6,27.9c0,0,0,0,0,0c-23.5,15.7-43.9,35.7-60.2,58.8c-1.2-0.9-2.3-1.7-3.5-2.6c-22.9-17.2-43.3-37.4-60.9-60.1
	c0.9-1.1,1.8-2.3,2.7-3.4c0,0,0.1-0.1,0.1-0.1c0.6-0.7,1.2-1.5,1.8-2.2c1.2-1.5,2.4-2.9,3.6-4.4c0.3-0.3,0.5-0.6,0.7-0.9
	c0.8-1,1.6-1.9,2.5-2.9c1.3-1.5,2.6-3,3.9-4.4c0.2-0.2,0.3-0.4,0.5-0.6c0.4-0.5,0.8-0.9,1.2-1.4c0.9-1,1.8-2,2.8-3
	c1-1.1,2-2.1,3-3.1c0.1-0.1,0.2-0.2,0.3-0.4l0.4-0.4l0.5-0.5c0.1-0.1,0.3-0.3,0.5-0.5c0.3-0.3,0.6-0.6,0.9-0.9c0.3-0.3,0.6-0.6,1-1
	c0.3-0.3,0.6-0.6,0.9-0.9c1.3-1.3,2.7-2.7,4-4c0.5-0.5,1.1-1,1.6-1.5c0.9-0.8,1.8-1.7,2.7-2.5c0.4-0.3,0.7-0.7,1.1-1
	c0.8-0.7,1.6-1.5,2.5-2.2c0.3-0.2,0.5-0.5,0.8-0.7c0.2-0.2,0.4-0.3,0.5-0.5c0.5-0.5,1-0.9,1.5-1.4c0.3-0.2,0.5-0.5,0.8-0.7
	c0.3-0.2,0.5-0.4,0.8-0.7c0.2-0.2,0.5-0.4,0.7-0.6c1.3-1.1,2.6-2.2,3.9-3.3c1-0.9,2-1.7,3.1-2.5c0.1-0.1,0.3-0.2,0.4-0.3
	c0.8-0.6,1.6-1.3,2.4-1.9c0.8-0.7,1.6-1.3,2.5-1.9c0.9-0.7,1.7-1.3,2.6-2c0.9-0.7,1.9-1.4,2.8-2.1c1-0.8,2-1.5,3.1-2.3
	c0.8-0.6,1.5-1.1,2.3-1.6c1.2-0.9,2.4-1.7,3.7-2.6c0.8-0.6,1.6-1.1,2.4-1.6c0.6-0.4,1.3-0.9,1.9-1.3c0.1-0.1,0.2-0.1,0.3-0.2
	c0.7-0.5,1.4-0.9,2.1-1.4c0.9-0.6,1.8-1.2,2.7-1.8c0.9-0.6,1.8-1.2,2.7-1.7c0.1-0.1,0.3-0.2,0.4-0.3c0.1-0.1,0.3-0.2,0.4-0.3
	c0.7-0.4,1.4-0.8,2.1-1.3c0.8-0.5,1.6-1,2.4-1.4c0.9-0.5,1.7-1,2.6-1.6c1.3-0.7,2.5-1.5,3.8-2.2c1.2-0.7,2.4-1.4,3.6-2
	c0.2-0.1,0.4-0.2,0.6-0.3c1.1-0.6,2.3-1.3,3.5-1.9c1.3-0.7,2.6-1.4,3.9-2c1.3-0.7,2.6-1.3,3.9-2c0.2-0.1,0.3-0.2,0.5-0.3
	c2.5-1.2,4.9-2.4,7.4-3.6c1.9-0.9,3.8-1.8,5.7-2.6c0.8-0.3,1.5-0.7,2.3-1c1.4-0.6,2.7-1.2,4.1-1.7c1.3-0.6,2.7-1.1,4.1-1.7
	c0.1-0.1,0.3-0.1,0.4-0.2c0.8-0.3,1.6-0.6,2.4-1c0.6-0.3,1.2-0.5,1.8-0.7c1.2-0.4,2.4-0.9,3.6-1.3c0.1-0.1,0.2-0.1,0.3-0.1
	c1.3-0.5,2.6-0.9,3.9-1.4c1.4-0.5,2.8-1,4.2-1.4c0.5-0.2,1.1-0.4,1.6-0.5c0.2-0.1,0.4-0.1,0.5-0.2c1.5-0.5,3.1-1,4.7-1.5
	c0.7-0.2,1.4-0.4,2.1-0.7c1.3-0.4,2.5-0.8,3.8-1.1c0.6-0.2,1.3-0.4,1.9-0.6c0.8-0.2,1.6-0.4,2.4-0.7l4.3-1.2
	c1.5-0.4,2.9-0.7,4.4-1.1c1.1-0.3,2.2-0.5,3.3-0.8c1.8-0.4,3.7-0.8,5.5-1.2c1.3-0.3,2.7-0.6,4-0.8c0.2,0,0.4-0.1,0.5-0.1
	c1.5-0.3,2.9-0.6,4.4-0.8c1.5-0.3,3-0.5,4.5-0.8c1.5-0.2,3-0.5,4.5-0.7c1.3-0.2,2.6-0.4,4-0.6c0.7-0.1,1.5-0.2,2.3-0.3
	c0.7-0.1,1.3-0.2,2-0.3c0.4-0.1,0.7-0.1,1.1-0.1c1.2-0.2,2.4-0.3,3.6-0.4c0.5-0.1,1.1-0.2,1.6-0.2c0.3,0,0.7-0.1,1-0.1
	c0.8-0.1,1.7-0.2,2.6-0.3c1.5-0.2,3.1-0.3,4.6-0.4c1.4-0.1,2.8-0.2,4.2-0.3c0.1,0,0.3,0,0.4,0c0.1,0,0.2,0,0.3,0
	c1.1-0.1,2.2-0.2,3.3-0.2c0.5,0,1.1-0.1,1.6-0.1c1.4-0.1,2.7-0.1,4.1-0.2c1.1,0,2.1-0.1,3.2-0.1c0.5,0,1,0,1.5,0
	c1,0,1.9-0.1,2.9-0.1c0.8,0,1.5,0,2.3,0c0.8,0,1.6,0,2.4,0c0.8,0,1.6,0,2.4,0c0.7,0,1.3,0,2,0c1,0,1.9,0,2.9,0.1
	c1.5,0,3.1,0.1,4.7,0.1c1.6,0.1,3.1,0.1,4.7,0.2c0.8,0,1.6,0.1,2.4,0.1c0.2,0,0.3,0,0.4,0c0.1,0,0.1,0,0.2,0c0.1,0,0.2,0,0.3,0
	c0.6,0,1.2,0.1,1.8,0.1c1.4,0.1,2.7,0.2,4.1,0.3c1.5,0.1,3.1,0.3,4.6,0.4c1.6,0.2,3.2,0.3,4.7,0.5c1.5,0.2,2.9,0.3,4.4,0.5
	c0.8,0.1,1.5,0.2,2.3,0.3c0.8,0.1,1.5,0.2,2.3,0.3c1.5,0.2,3,0.4,4.5,0.7c1.5,0.2,3,0.5,4.5,0.7c1.3,0.2,2.6,0.4,3.9,0.7
	c1.3,0.2,2.6,0.5,3.9,0.7c0.7,0.1,1.3,0.3,2,0.4c1.2,0.2,2.3,0.5,3.5,0.7c1.7,0.4,3.5,0.7,5.2,1.2c1.2,0.3,2.4,0.6,3.6,0.8
	c1.5,0.3,2.9,0.7,4.4,1.1c1.4,0.4,2.9,0.7,4.3,1.2c1.8,0.5,3.7,1,5.5,1.6c0.2,0.1,0.5,0.1,0.7,0.2c0.6,0.2,1.3,0.4,1.9,0.6
	c0.7,0.2,1.3,0.4,2,0.6c1,0.3,1.9,0.6,2.8,0.9c0.3,0.1,0.7,0.2,1,0.3c0.2,0.1,0.4,0.1,0.6,0.2c0,0,0,0,0,0c1.6,0.5,3.3,1.1,4.9,1.6
	c2,0.7,4,1.4,6.1,2.1c0.4,0.2,0.8,0.3,1.2,0.4c0.3,0.1,0.6,0.2,0.9,0.3c0.3,0.1,0.5,0.2,0.8,0.3c0.1,0,0.1,0,0.2,0.1
	c1.3,0.5,2.6,1,3.8,1.5c0.6,0.2,1.2,0.4,1.7,0.7c0.5,0.2,1,0.4,1.5,0.6c0.1,0,0.2,0,0.2,0.1c1.7,0.7,3.4,1.4,5.1,2.1
	c1.9,0.8,3.8,1.6,5.7,2.5c0.6,0.3,1.3,0.6,1.9,0.9c0.7,0.3,1.3,0.6,1.9,0.9c1.2,0.6,2.4,1.1,3.6,1.7c0.7,0.3,1.3,0.6,2,1
	c0.7,0.3,1.3,0.6,2,1c1.3,0.6,2.6,1.3,3.9,2c1.3,0.7,2.6,1.4,3.9,2c2.6,1.4,5.1,2.8,7.7,4.2c1.2,0.7,2.4,1.4,3.6,2.1
	c0.6,0.3,1.1,0.6,1.7,1c0.4,0.3,0.8,0.5,1.3,0.8c0.4,0.2,0.7,0.4,1,0.6c1.3,0.7,2.5,1.5,3.7,2.3c1.2,0.8,2.5,1.6,3.7,2.3
	c1.2,0.8,2.4,1.6,3.7,2.4c1.1,0.7,2.1,1.4,3.2,2.1c1,0.7,2.1,1.4,3.1,2.2c0.6,0.4,1.1,0.8,1.7,1.2c1,0.7,2.1,1.5,3.1,2.2
	c1.1,0.8,2.2,1.6,3.2,2.4c1.8,1.3,3.6,2.7,5.4,4.1c0.9,0.7,1.7,1.4,2.6,2c0.4,0.4,0.9,0.7,1.3,1.1c0.7,0.6,1.4,1.1,2.1,1.7
	c0.7,0.6,1.4,1.1,2.1,1.7c0.3,0.3,0.6,0.5,0.9,0.8c0.9,0.7,1.7,1.5,2.6,2.2c1,0.9,2,1.7,3,2.6c0.3,0.3,0.7,0.6,1,0.9
	c0.9,0.8,1.7,1.5,2.6,2.3c1.1,1,2.1,1.9,3.2,2.9c2.1,2,4.2,4,6.3,6c1,1,2.1,2,3.1,3.1c1,1,2,2.1,3,3.1c1,1,2,2.1,3,3.1
	c0,0,0.1,0.1,0.1,0.1c0.9,1,1.8,2,2.7,2.9c0.6,0.6,1.2,1.3,1.7,1.9c0.4,0.5,0.9,1,1.3,1.5c1.5,1.7,3,3.4,4.4,5.1
	c0.4,0.5,0.8,1,1.3,1.5c0.7,0.8,1.3,1.6,2,2.4c0.3,0.3,0.5,0.7,0.8,1c0.4,0.5,0.8,1,1.2,1.5c0.5,0.6,1,1.2,1.4,1.8
	C788.9,189.3,789.8,190.5,790.8,191.7z"/>
<path id="XMLID_82_" class="st1" d="M341.1,359.1c0,1.2-0.1,2.3-0.2,3.5c-0.1,1.1-0.3,2.3-0.6,3.4c-0.1,0.3-0.1,0.6-0.2,0.9v0
	c-0.1,0.3-0.1,0.6-0.3,0.9c-0.2,0.6-0.4,1.2-0.6,1.8c-0.5,1.3-1.1,2.6-1.7,3.9c-0.2,0.4-0.5,0.8-0.7,1.2v0c-0.1,0.2-0.3,0.4-0.4,0.6
	c-0.1,0.2-0.3,0.5-0.5,0.7c-0.1,0.2-0.2,0.4-0.3,0.6c-0.1,0.2-0.3,0.5-0.5,0.7c-0.7,1-1.5,1.9-2.3,2.8c-0.1,0.1-0.2,0.2-0.3,0.3
	s-0.2,0.2-0.3,0.3c-0.1,0.1-0.2,0.2-0.3,0.3c-0.1,0.1-0.2,0.2-0.3,0.3c-0.5,0.5-0.9,0.9-1.4,1.3c-0.4,0.3-0.8,0.7-1.3,1
	c-0.4,0.3-0.8,0.6-1.1,0.9c-0.2,0.2-0.5,0.3-0.7,0.5c-1.3,0.9-2.7,1.6-4.1,2.3c-0.8,0.4-1.6,0.7-2.4,1c-1.1,0.4-2.2,0.7-3.4,1
	c-0.3,0.1-0.5,0.1-0.9,0.2c0,0-0.1,0-0.1,0c-0.3,0-0.6,0.1-0.9,0.1c-0.5,0.1-1,0.1-1.4,0.2c-0.4,0-0.7,0.1-1.1,0.1
	c-0.4,0-0.7,0.1-1.1,0.1c-0.5,0-1,0-1.6,0s-1.1,0-1.6,0c-4.5-0.2-8.7-1.4-12.4-3.3c-0.9-0.5-1.7-0.9-2.5-1.5
	c-0.8-0.5-1.6-1.1-2.4-1.7c-0.5-0.4-1-0.8-1.5-1.3c-0.3-0.3-0.6-0.6-1-0.9c-0.3-0.3-0.6-0.6-0.9-0.9c-0.5-0.5-0.9-1-1.4-1.5
	c-0.9-1.1-1.7-2.2-2.5-3.4c-3-4.8-4.7-10.4-4.7-16.4c0-0.9,0-1.8,0.1-2.7c0.1-1.8,0.4-3.5,0.9-5.1v0c1.4-5.4,4.3-10.3,8.1-14.1
	c2.7-2.7,6-5,9.7-6.5c1.1-0.5,2.2-0.9,3.4-1.2c0.4-0.1,0.8-0.2,1.2-0.3c0.8-0.2,1.6-0.4,2.4-0.5c0.8-0.1,1.6-0.3,2.5-0.3
	c0.9-0.1,1.7-0.1,2.7-0.1c2,0,3.9,0.2,5.7,0.5c0.6,0.1,1.2,0.2,1.8,0.4c4.5,1.1,8.5,3.2,12,6c0.3,0.2,0.5,0.5,0.8,0.7
	c0.5,0.5,1.1,1,1.6,1.5c0.1,0.1,0.2,0.2,0.3,0.3c0.5,0.5,1,1.1,1.5,1.6c0,0,0,0,0,0c0.4,0.4,0.7,0.9,1.1,1.3c1.1,1.4,2,2.9,2.8,4.5
	C339.9,349.2,341.1,354,341.1,359.1z"/>
<line id="XMLID_249_" class="st0" x1="508.4" y1="178.7" x2="416.2" y2="270.8"/>
<line id="XMLID_245_" class="st0" x1="595.3" y1="185.6" x2="486.1" y2="294.8"/>
<line id="XMLID_242_" class="st0" x1="658.2" y1="216.5" x2="578" y2="296.6"/>
<path id="XMLID_96_" class="st1" d="M799.1,359c0,3.2-0.5,6.3-1.4,9.2c-0.6,1.9-1.4,3.8-2.3,5.5c-1.4,2.6-3.2,5-5.3,7.1
	c-2.1,2.1-4.5,3.9-7.1,5.3c-0.5,0.3-1.1,0.6-1.7,0.9c-1.7,0.8-3.5,1.4-5.3,1.9c-0.5,0.1-1,0.2-1.5,0.3c-1,0.2-2,0.4-3.1,0.5
	c-1,0.1-2.1,0.1-3.2,0.1c0,0,0,0,0,0c-1,0-2,0-3-0.1c-0.2,0-0.3,0-0.5,0c-0.2,0-0.3,0-0.5-0.1c-0.2,0-0.4,0-0.6-0.1
	c-0.1,0-0.2,0-0.3,0c-0.1,0-0.2,0-0.3-0.1c-0.1,0-0.2,0-0.3,0c0,0,0,0,0,0c-0.1,0-0.2-0.1-0.3-0.1c-0.5-0.1-1-0.2-1.6-0.3
	c-0.4-0.1-0.7-0.2-1.1-0.3c-0.2,0-0.4-0.1-0.5-0.1c-1-0.3-1.9-0.6-2.8-1c-0.7-0.3-1.5-0.6-2.2-1c-0.7-0.4-1.4-0.8-2.1-1.2
	c-1.4-0.8-2.7-1.8-3.9-2.8c-0.8-0.7-1.6-1.4-2.3-2.2c-2.9-3.1-5.3-6.8-6.7-10.8c-0.1-0.3-0.2-0.5-0.3-0.8c-0.1-0.3-0.2-0.5-0.3-0.9
	c0-0.1-0.1-0.3-0.1-0.5c0-0.1-0.1-0.3-0.1-0.5c0-0.2-0.1-0.3-0.1-0.5c0,0,0-0.1,0-0.1c-0.1-0.2-0.2-0.5-0.2-0.8c0,0,0,0,0-0.1
	l-0.1-0.3c-0.2-0.9-0.3-1.8-0.5-2.7c-0.1-1.1-0.2-2.3-0.2-3.5c0-0.5,0-1,0-1.5c0-0.5,0.1-1,0.1-1.5c0.1-0.5,0.1-1,0.2-1.5
	c0.1-0.5,0.2-1,0.3-1.5c0.1-0.3,0.1-0.6,0.2-0.9c0.3-1.5,0.8-2.9,1.3-4.3c0.1-0.3,0.2-0.6,0.4-0.9c0.2-0.3,0.3-0.7,0.4-1
	c0.3-0.7,0.7-1.5,1.1-2.1c1.8-3.1,4.1-5.9,6.8-8.1c0.5-0.4,0.9-0.7,1.3-1.1c0.3-0.2,0.5-0.3,0.7-0.5s0.5-0.3,0.7-0.5
	c0.9-0.6,1.9-1.2,2.8-1.7c0.7-0.4,1.5-0.8,2.3-1.1c0.8-0.3,1.6-0.6,2.4-0.9c0.4-0.1,0.8-0.3,1.2-0.4c0.4-0.1,0.8-0.2,1.2-0.3h0
	c2.3-0.6,4.8-0.9,7.2-0.9c0.6,0,1.3,0,1.9,0.1c0.6,0,1.2,0.1,1.7,0.1c0.2,0,0.4,0,0.6,0.1c0,0,0.1,0,0.1,0c0.2,0,0.4,0,0.5,0.1
	c0.2,0,0.4,0.1,0.6,0.1c0.7,0.1,1.4,0.3,2,0.4s1.3,0.4,2,0.6c0.7,0.2,1.3,0.4,1.9,0.7c0.3,0.1,0.5,0.2,0.8,0.3
	c0.1,0,0.2,0.1,0.3,0.1c0.3,0.1,0.5,0.2,0.8,0.3v0c0,0,0,0,0,0c0.3,0.1,0.6,0.3,0.8,0.4c0.5,0.3,1,0.5,1.5,0.8c0,0,0.1,0.1,0.1,0.1
	c0.7,0.4,1.3,0.8,1.9,1.2c0.2,0.2,0.5,0.4,0.7,0.5c0,0,0,0,0.1,0.1c0.3,0.2,0.5,0.4,0.8,0.6c0.3,0.2,0.5,0.4,0.8,0.6
	c0.5,0.4,1,0.9,1.5,1.4c0.1,0.1,0.2,0.2,0.4,0.3c0.1,0.1,0.2,0.2,0.3,0.3c1.7,1.7,3.1,3.7,4.4,5.8c0.3,0.5,0.6,1,0.8,1.5
	c0.2,0.4,0.4,0.7,0.5,1.1c0.2,0.4,0.3,0.8,0.5,1.1c0.2,0.5,0.5,1.1,0.6,1.6c0,0,0,0,0,0c0.2,0.6,0.4,1.3,0.6,1.9c0,0.1,0,0.1,0,0.2
	c0.1,0.4,0.2,0.8,0.3,1.2c0,0.1,0.1,0.2,0.1,0.3c0,0,0,0,0,0.1c0,0,0,0.1,0,0.1c0,0.2,0.1,0.4,0.1,0.5v0c0.1,0.3,0.1,0.6,0.2,0.9
	c0,0.2,0.1,0.4,0.1,0.5c0,0.2,0.1,0.4,0.1,0.5c0,0.3,0.1,0.5,0.1,0.8v0.1c0,0.3,0.1,0.7,0.1,1.1C799.1,357.8,799.1,358.4,799.1,359z
	"/>
<path id="XMLID_75_" class="st0" d="M316,328.7c0.6,0.1,1.2,0.2,1.8,0.4C317.2,329,316.6,328.8,316,328.7L316,328.7z"/>
<line id="XMLID_225_" class="st0" x1="557.4" y1="176.6" x2="449.5" y2="284.4"/>
<line id="XMLID_222_" class="st0" x1="628.2" y1="199.5" x2="528.9" y2="298.8"/>
<path id="XMLID_80_" class="st0" d="M852.9,333.5c-10.3,3.6-20.7,7-31.2,10.3c-3.1,1-15.2,4.5-20.8,6.2c-0.4,0.1-0.7,0.2-1,0.3
	c-0.4,0.1-0.8,0.2-1.1,0.3c-0.2,0-0.4,0.1-0.5,0.1c-0.1,0-0.2,0.1-0.2,0.1h0c0,0,0,0,0,0c-0.2-0.6-0.4-1.3-0.6-1.9c0,0,0,0,0,0
	c-0.2-0.5-0.4-1.1-0.6-1.6c-0.2-0.4-0.3-0.8-0.5-1.1c-0.2-0.4-0.3-0.7-0.6-1.1c-0.3-0.5-0.6-1-0.8-1.5c-1.3-2.1-2.7-4-4.4-5.8
	c-0.1-0.1-0.2-0.2-0.3-0.3c-0.1-0.1-0.2-0.2-0.4-0.3c-0.5-0.5-1-0.9-1.5-1.4c-0.2-0.2-0.5-0.5-0.8-0.7c-0.3-0.2-0.5-0.4-0.8-0.6
	c0,0-0.1,0-0.1-0.1c-0.3-0.2-0.5-0.4-0.7-0.5c-0.6-0.4-1.3-0.9-1.9-1.2c0,0-0.1,0-0.1-0.1c-0.5-0.3-1-0.5-1.5-0.8
	c-0.3-0.1-0.6-0.3-0.8-0.4c0,0,0,0,0,0c-0.3-0.1-0.5-0.2-0.8-0.3c-0.1-0.1-0.2-0.1-0.3-0.1c-0.3-0.1-0.5-0.2-0.8-0.3
	c-0.6-0.3-1.3-0.5-1.9-0.7c-0.6-0.2-1.3-0.4-2-0.5s-1.4-0.3-2-0.4c-0.2,0-0.4-0.1-0.5-0.1c-0.2,0-0.4,0-0.6-0.1c0,0-0.1,0-0.1,0
	c-0.2,0-0.4-0.1-0.6-0.1c-0.5-0.1-1.2-0.1-1.7-0.1c-0.6,0-1.3-0.1-1.9-0.1c-2.5,0-4.9,0.3-7.3,0.9v0c-2.1-8.3-4.7-16.4-7.8-24.3
	c-4.2-11-9.3-21.7-15.1-31.8c-3.6-6.4-7.5-12.6-11.8-18.6c1.1-0.8,2.2-1.6,3.3-2.5c23-17.2,43.5-37.5,61.1-60.1
	C822.2,232.3,844,280.7,852.9,333.5z"/>
<g id="XMLID_29_">
	
		<image style="overflow:visible;opacity:0.5;enable-background:new    ;" width="40" height="46" xlink:href="407A62A6.png"  transform="matrix(0.468 0 0 0.468 791.87 343.316)">
	</image>
	<g>
		<path class="st2" d="M798,350.8C797.9,350.8,797.9,350.8,798,350.8"/>
	</g>
</g>
<path id="XMLID_4_" class="st0" d="M350.4,254.3"/>
<g id="XMLID_3_">
	<path id="XMLID_18_" class="st3" d="M507.9,406h2c0.4,7.2,3.3,13.2,8.8,17.9c5.3,4.6,11.4,7,18.3,7c5.3,0,9.7-1.5,13-4.5
		c3.3-3,5-6.6,5-10.8c0-4.4-1.6-7.8-4.8-10.3c-3.1-2.4-9.3-5.1-18.4-8.1c-7.4-2.4-12.6-4.4-15.7-6c-3.6-1.9-6.4-4.4-8.5-7.6
		c-2.2-3.2-3.3-6.9-3.3-10.9c0-4.5,1.5-8.9,4.5-13.2c-0.7,2.2-1,4.1-1,5.8c0,4.4,1,8.3,3.1,11.6c2.2,3.5,4.8,6.1,8,7.8
		c3.2,1.8,8.5,3.9,15.9,6.2c9.7,2.9,16.7,6.2,21,9.8c4.1,3.5,6.2,8.1,6.2,13.9c0,5.7-2.2,10.9-6.5,15.5c-4.4,4.7-10.9,7-19.5,7
		c-3.5,0-8.4-0.6-14.6-2c-5.4-1.1-9.5-1.7-12.2-1.8l-0.6-0.7c0.1-1,0.1-2.2,0.1-3.7c0-1.8-0.2-4.6-0.5-8.4c-0.3-3.8-0.4-6.6-0.4-8.5
		C507.5,409.8,507.6,407.7,507.9,406z M567.8,370.4H566c-0.1-6.6-2.7-11.4-7.8-14.6c-5-3.1-11.2-4.7-18.3-4.7
		c-5.7,0-10.4,1.2-14.1,3.6c-3.7,2.4-5.6,5.4-5.6,8.8c0,3.6,1.5,6.5,4.4,8.6c3.1,2.3,9.1,5,18.1,8.1c8.4,2.9,14.2,5.2,17.6,7
		c3.6,2,6.5,4.8,8.9,8.5c2.4,3.8,3.6,8,3.6,12.6c0,7.1-2.6,12.6-7.8,16.6c1.9-2.7,2.9-6.4,2.9-11.2c0-4.5-1.1-8.5-3.1-12.1
		c-2.2-3.6-4.9-6.4-8.2-8.5c-3.3-2.1-8.6-4.4-16.1-6.9c-11.2-3.7-18.4-6.8-21.8-9.4c-3.4-2.7-5.1-6.8-5.1-12.4
		c0-6.5,2.6-11.5,7.8-15.2c5.2-3.6,12.6-5.4,22.2-5.4c6.5,0,14.5,1.1,23.9,3.4v0.6l0.2,3.2c0,1.7,0.1,3.7,0.2,6.1
		c0.2,2.9,0.3,5.4,0.3,7.6C568,366.5,567.9,368.3,567.8,370.4z"/>
</g>
<path id="XMLID_27_" class="st0" d="M381.6,248.3c0,0,68.7-72.3,157.1-72.3s160.1,74.4,160.1,74.4s-72.4,49-157.4,49
	C439.4,299.3,381.6,248.3,381.6,248.3z"/>
<g id="XMLID_28_">
	<line id="XMLID_57_" class="st0" x1="386.7" y1="306" x2="352.2" y2="340.5"/>
	<line id="XMLID_56_" class="st0" x1="458.3" y1="328.2" x2="418.5" y2="368"/>
	<line id="XMLID_39_" class="st0" x1="420.8" y1="318.7" x2="377.4" y2="362.2"/>
	<path id="XMLID_30_" class="st0" d="M350.3,337c0,0,8.3,9.6,9.4,22.6l92.6,13.1l17-42.6c0,0-78.9-14.2-101.1-35.9L350.3,337z"/>
</g>
<g id="XMLID_31_">
	<line id="XMLID_238_" class="st0" x1="657.5" y1="318.7" x2="620.3" y2="355.9"/>
	<line id="XMLID_66_" class="st0" x1="716.7" y1="306.4" x2="653.8" y2="369.2"/>
	<path id="XMLID_38_" class="st0" d="M728.8,337c0,0-8.3,9.6-9.4,22.6l-92.6,13.1l-17-42.6c0,0,78.8-14.2,101.1-35.9L728.8,337z"/>
</g>
<circle id="XMLID_2_" class="st0" cx="538.4" cy="390.2" r="69.4"/>
<path id="XMLID_5_" class="st0" d="M350.4,254.3c0,0,98.7,66.5,190.1,66.5s185.8-66.5,185.8-66.5"/>
<g id="XMLID_32_">
	<line id="XMLID_244_" class="st0" x1="370.8" y1="407.4" x2="339.9" y2="438.3"/>
	<line id="XMLID_241_" class="st0" x1="453.9" y1="418.1" x2="367.6" y2="504.4"/>
	<line id="XMLID_240_" class="st0" x1="495.2" y1="470.5" x2="410.4" y2="555.3"/>
	<line id="XMLID_237_" class="st0" x1="649.3" y1="410.3" x2="472.2" y2="587.3"/>
	<line id="XMLID_37_" class="st0" x1="733.7" y1="418.5" x2="570.7" y2="581.6"/>
	<line id="XMLID_220_" class="st0" x1="415.3" y1="409.8" x2="352.7" y2="472.4"/>
	<line id="XMLID_79_" class="st0" x1="470.5" y1="449.3" x2="387.1" y2="531.8"/>
	<line id="XMLID_77_" class="st0" x1="531" y1="481.7" x2="438.4" y2="574.2"/>
	<line id="XMLID_64_" class="st0" x1="698.9" y1="407.6" x2="538.4" y2="568.1"/>
	<polyline id="XMLID_40_" class="st0" points="627.9,576.6 716.9,487.6 717.1,487.4 	"/>
	<path id="XMLID_33_" class="st0" d="M352.4,406l-14.9,20.2c0,0,31,155.8,161.7,165.3c0,0,11.3-23.7,39.7-23.7
		c28.4,0,38.5,23.7,38.5,23.7s124.2-8,161.9-166.2l-15-19.3l-99.5,5.4c0,0-20.7,70.1-88.5,70.1c-67.8,0-83.9-69-83.9-69L352.4,406z"
		/>
</g>
<circle id="XMLID_26_" class="st4" cx="538.4" cy="622.3" r="33.4"/>
</svg>
